<mxfile host="app.diagrams.net" agent="Mozilla/5.0 (Windows NT 10.0; Win64; x64) AppleWebKit/537.36 (KHTML, like Gecko) Chrome/135.0.0.0 Safari/537.36" version="26.2.14">
  <diagram name="Page-1" id="DU4UGzuW6RDLRxhfXKlp">
    <mxGraphModel dx="2620" dy="2603" grid="1" gridSize="10" guides="1" tooltips="1" connect="1" arrows="1" fold="1" page="1" pageScale="1" pageWidth="850" pageHeight="1100" math="0" shadow="0">
      <root>
        <mxCell id="0" />
        <mxCell id="1" parent="0" />
        <mxCell id="X85s0yCxvE1wC52VFxOE-5" style="edgeStyle=orthogonalEdgeStyle;rounded=0;orthogonalLoop=1;jettySize=auto;html=1;exitX=1;exitY=0.5;exitDx=0;exitDy=0;entryX=0;entryY=0.5;entryDx=0;entryDy=0;" edge="1" parent="1" source="n3jme6qHMiQagpMyUiRi-1" target="n3jme6qHMiQagpMyUiRi-13">
          <mxGeometry relative="1" as="geometry" />
        </mxCell>
        <mxCell id="n3jme6qHMiQagpMyUiRi-1" value="" style="whiteSpace=wrap;html=1;aspect=fixed;" parent="1" vertex="1">
          <mxGeometry x="40" y="65" width="340" height="340" as="geometry" />
        </mxCell>
        <mxCell id="n3jme6qHMiQagpMyUiRi-2" value="Home page&amp;nbsp;" style="text;html=1;align=center;verticalAlign=middle;resizable=0;points=[];autosize=1;strokeColor=none;fillColor=none;" parent="1" vertex="1">
          <mxGeometry x="335" y="410" width="90" height="30" as="geometry" />
        </mxCell>
        <mxCell id="n3jme6qHMiQagpMyUiRi-3" value="Header" style="rounded=0;whiteSpace=wrap;html=1;" parent="1" vertex="1">
          <mxGeometry x="40" y="65" width="340" height="50" as="geometry" />
        </mxCell>
        <mxCell id="n3jme6qHMiQagpMyUiRi-5" value="" style="whiteSpace=wrap;html=1;aspect=fixed;" parent="1" vertex="1">
          <mxGeometry x="60" y="145" width="80" height="80" as="geometry" />
        </mxCell>
        <mxCell id="n3jme6qHMiQagpMyUiRi-6" value="" style="whiteSpace=wrap;html=1;aspect=fixed;" parent="1" vertex="1">
          <mxGeometry x="170" y="145" width="80" height="80" as="geometry" />
        </mxCell>
        <mxCell id="n3jme6qHMiQagpMyUiRi-7" value="" style="whiteSpace=wrap;html=1;aspect=fixed;" parent="1" vertex="1">
          <mxGeometry x="280" y="145" width="80" height="80" as="geometry" />
        </mxCell>
        <mxCell id="n3jme6qHMiQagpMyUiRi-8" value="" style="whiteSpace=wrap;html=1;aspect=fixed;" parent="1" vertex="1">
          <mxGeometry x="60" y="245" width="80" height="80" as="geometry" />
        </mxCell>
        <mxCell id="n3jme6qHMiQagpMyUiRi-9" value="" style="whiteSpace=wrap;html=1;aspect=fixed;" parent="1" vertex="1">
          <mxGeometry x="170" y="245" width="80" height="80" as="geometry" />
        </mxCell>
        <mxCell id="n3jme6qHMiQagpMyUiRi-10" value="" style="whiteSpace=wrap;html=1;aspect=fixed;" parent="1" vertex="1">
          <mxGeometry x="280" y="245" width="80" height="80" as="geometry" />
        </mxCell>
        <mxCell id="n3jme6qHMiQagpMyUiRi-11" value="Footer" style="rounded=0;whiteSpace=wrap;html=1;" parent="1" vertex="1">
          <mxGeometry x="40" y="345" width="340" height="60" as="geometry" />
        </mxCell>
        <mxCell id="X85s0yCxvE1wC52VFxOE-9" style="edgeStyle=orthogonalEdgeStyle;rounded=0;orthogonalLoop=1;jettySize=auto;html=1;exitX=0;exitY=0.5;exitDx=0;exitDy=0;entryX=0.25;entryY=0;entryDx=0;entryDy=0;" edge="1" parent="1" source="n3jme6qHMiQagpMyUiRi-12" target="n3jme6qHMiQagpMyUiRi-13">
          <mxGeometry relative="1" as="geometry" />
        </mxCell>
        <mxCell id="n3jme6qHMiQagpMyUiRi-12" value="" style="whiteSpace=wrap;html=1;aspect=fixed;" parent="1" vertex="1">
          <mxGeometry x="570" y="-550" width="340" height="340" as="geometry" />
        </mxCell>
        <mxCell id="X85s0yCxvE1wC52VFxOE-4" style="edgeStyle=orthogonalEdgeStyle;rounded=0;orthogonalLoop=1;jettySize=auto;html=1;exitX=0.5;exitY=1;exitDx=0;exitDy=0;entryX=0.5;entryY=0;entryDx=0;entryDy=0;" edge="1" parent="1" source="n3jme6qHMiQagpMyUiRi-13" target="TyNaTPidOdF84O7qYXco-13">
          <mxGeometry relative="1" as="geometry" />
        </mxCell>
        <mxCell id="X85s0yCxvE1wC52VFxOE-8" style="edgeStyle=orthogonalEdgeStyle;rounded=0;orthogonalLoop=1;jettySize=auto;html=1;entryX=0.5;entryY=0;entryDx=0;entryDy=0;" edge="1" parent="1" source="n3jme6qHMiQagpMyUiRi-13" target="TyNaTPidOdF84O7qYXco-11">
          <mxGeometry relative="1" as="geometry" />
        </mxCell>
        <mxCell id="X85s0yCxvE1wC52VFxOE-15" style="edgeStyle=orthogonalEdgeStyle;rounded=0;orthogonalLoop=1;jettySize=auto;html=1;exitX=0.25;exitY=1;exitDx=0;exitDy=0;entryX=0.25;entryY=0;entryDx=0;entryDy=0;" edge="1" parent="1" source="n3jme6qHMiQagpMyUiRi-13" target="TyNaTPidOdF84O7qYXco-109">
          <mxGeometry relative="1" as="geometry" />
        </mxCell>
        <mxCell id="n3jme6qHMiQagpMyUiRi-13" value="" style="rounded=0;whiteSpace=wrap;html=1;" parent="1" vertex="1">
          <mxGeometry x="600" y="60" width="340" height="340" as="geometry" />
        </mxCell>
        <mxCell id="n3jme6qHMiQagpMyUiRi-14" value="Email" style="rounded=0;whiteSpace=wrap;html=1;" parent="1" vertex="1">
          <mxGeometry x="640" y="130" width="260" height="40" as="geometry" />
        </mxCell>
        <mxCell id="n3jme6qHMiQagpMyUiRi-15" value="Password" style="rounded=0;whiteSpace=wrap;html=1;" parent="1" vertex="1">
          <mxGeometry x="640" y="190" width="260" height="40" as="geometry" />
        </mxCell>
        <mxCell id="n3jme6qHMiQagpMyUiRi-16" value="Login" style="rounded=0;whiteSpace=wrap;html=1;" parent="1" vertex="1">
          <mxGeometry x="640" y="260" width="110" height="30" as="geometry" />
        </mxCell>
        <mxCell id="n3jme6qHMiQagpMyUiRi-19" value="SignUp" style="rounded=0;whiteSpace=wrap;html=1;" parent="1" vertex="1">
          <mxGeometry x="790" y="260" width="110" height="30" as="geometry" />
        </mxCell>
        <mxCell id="TyNaTPidOdF84O7qYXco-1" value="" style="rounded=0;whiteSpace=wrap;html=1;" parent="1" vertex="1">
          <mxGeometry x="590" y="-520" width="300" height="40" as="geometry" />
        </mxCell>
        <mxCell id="TyNaTPidOdF84O7qYXco-5" value="Name" style="rounded=0;whiteSpace=wrap;html=1;" parent="1" vertex="1">
          <mxGeometry x="590" y="-520" width="300" height="40" as="geometry" />
        </mxCell>
        <mxCell id="TyNaTPidOdF84O7qYXco-6" value="Email" style="rounded=0;whiteSpace=wrap;html=1;" parent="1" vertex="1">
          <mxGeometry x="590" y="-470" width="300" height="40" as="geometry" />
        </mxCell>
        <mxCell id="TyNaTPidOdF84O7qYXco-7" value="Phone No" style="rounded=0;whiteSpace=wrap;html=1;" parent="1" vertex="1">
          <mxGeometry x="590" y="-420" width="300" height="40" as="geometry" />
        </mxCell>
        <mxCell id="TyNaTPidOdF84O7qYXco-8" value="Address" style="rounded=0;whiteSpace=wrap;html=1;" parent="1" vertex="1">
          <mxGeometry x="590" y="-370" width="300" height="40" as="geometry" />
        </mxCell>
        <mxCell id="TyNaTPidOdF84O7qYXco-9" value="password" style="rounded=0;whiteSpace=wrap;html=1;" parent="1" vertex="1">
          <mxGeometry x="590" y="-320" width="300" height="40" as="geometry" />
        </mxCell>
        <mxCell id="TyNaTPidOdF84O7qYXco-10" value="Register" style="rounded=0;whiteSpace=wrap;html=1;" parent="1" vertex="1">
          <mxGeometry x="680" y="-270" width="120" height="40" as="geometry" />
        </mxCell>
        <mxCell id="TyNaTPidOdF84O7qYXco-11" value="Registration" style="text;html=1;align=center;verticalAlign=middle;whiteSpace=wrap;rounded=0;" parent="1" vertex="1">
          <mxGeometry x="710" y="-200" width="60" height="30" as="geometry" />
        </mxCell>
        <mxCell id="TyNaTPidOdF84O7qYXco-12" value="" style="whiteSpace=wrap;html=1;aspect=fixed;" parent="1" vertex="1">
          <mxGeometry x="1040" y="-540" width="340" height="340" as="geometry" />
        </mxCell>
        <mxCell id="X85s0yCxvE1wC52VFxOE-17" style="edgeStyle=orthogonalEdgeStyle;rounded=0;orthogonalLoop=1;jettySize=auto;html=1;exitX=0.75;exitY=0;exitDx=0;exitDy=0;entryX=0.75;entryY=0;entryDx=0;entryDy=0;" edge="1" parent="1" source="TyNaTPidOdF84O7qYXco-13">
          <mxGeometry relative="1" as="geometry">
            <mxPoint x="1295" y="-540" as="targetPoint" />
          </mxGeometry>
        </mxCell>
        <mxCell id="X85s0yCxvE1wC52VFxOE-22" style="edgeStyle=elbowEdgeStyle;rounded=0;orthogonalLoop=1;jettySize=auto;html=1;exitX=0.75;exitY=0;exitDx=0;exitDy=0;entryX=0.5;entryY=0;entryDx=0;entryDy=0;" edge="1" parent="1" source="TyNaTPidOdF84O7qYXco-13" target="TyNaTPidOdF84O7qYXco-64">
          <mxGeometry relative="1" as="geometry">
            <Array as="points">
              <mxPoint x="1420" y="-650" />
            </Array>
          </mxGeometry>
        </mxCell>
        <mxCell id="TyNaTPidOdF84O7qYXco-13" value="" style="rounded=0;whiteSpace=wrap;html=1;" parent="1" vertex="1">
          <mxGeometry x="1040" y="-540" width="340" height="50" as="geometry" />
        </mxCell>
        <mxCell id="TyNaTPidOdF84O7qYXco-15" value="" style="rounded=0;whiteSpace=wrap;html=1;" parent="1" vertex="1">
          <mxGeometry x="1050" y="-530" width="50" height="30" as="geometry" />
        </mxCell>
        <mxCell id="TyNaTPidOdF84O7qYXco-16" value="" style="rounded=0;whiteSpace=wrap;html=1;" parent="1" vertex="1">
          <mxGeometry x="1110" y="-530" width="50" height="30" as="geometry" />
        </mxCell>
        <mxCell id="TyNaTPidOdF84O7qYXco-17" value="" style="rounded=0;whiteSpace=wrap;html=1;" parent="1" vertex="1">
          <mxGeometry x="1170" y="-530" width="50" height="30" as="geometry" />
        </mxCell>
        <mxCell id="TyNaTPidOdF84O7qYXco-18" value="" style="rounded=0;whiteSpace=wrap;html=1;" parent="1" vertex="1">
          <mxGeometry x="1230" y="-530" width="50" height="30" as="geometry" />
        </mxCell>
        <mxCell id="TyNaTPidOdF84O7qYXco-20" value="" style="whiteSpace=wrap;html=1;aspect=fixed;" parent="1" vertex="1">
          <mxGeometry x="1060" y="-470" width="80" height="80" as="geometry" />
        </mxCell>
        <mxCell id="TyNaTPidOdF84O7qYXco-21" value="" style="whiteSpace=wrap;html=1;aspect=fixed;" parent="1" vertex="1">
          <mxGeometry x="1170" y="-470" width="80" height="80" as="geometry" />
        </mxCell>
        <mxCell id="TyNaTPidOdF84O7qYXco-22" value="" style="whiteSpace=wrap;html=1;aspect=fixed;" parent="1" vertex="1">
          <mxGeometry x="1280" y="-470" width="80" height="80" as="geometry" />
        </mxCell>
        <mxCell id="TyNaTPidOdF84O7qYXco-23" value="" style="whiteSpace=wrap;html=1;aspect=fixed;" parent="1" vertex="1">
          <mxGeometry x="1060" y="-370" width="80" height="80" as="geometry" />
        </mxCell>
        <mxCell id="TyNaTPidOdF84O7qYXco-24" value="" style="whiteSpace=wrap;html=1;aspect=fixed;" parent="1" vertex="1">
          <mxGeometry x="1170" y="-370" width="80" height="80" as="geometry" />
        </mxCell>
        <mxCell id="TyNaTPidOdF84O7qYXco-25" value="" style="whiteSpace=wrap;html=1;aspect=fixed;" parent="1" vertex="1">
          <mxGeometry x="1280" y="-370" width="80" height="80" as="geometry" />
        </mxCell>
        <mxCell id="TyNaTPidOdF84O7qYXco-26" value="User Dashboard" style="text;html=1;align=center;verticalAlign=middle;resizable=0;points=[];autosize=1;strokeColor=none;fillColor=none;" parent="1" vertex="1">
          <mxGeometry x="1160" y="-190" width="110" height="30" as="geometry" />
        </mxCell>
        <mxCell id="TyNaTPidOdF84O7qYXco-27" value="" style="whiteSpace=wrap;html=1;aspect=fixed;" parent="1" vertex="1">
          <mxGeometry x="2860" y="-542.25" width="340" height="340" as="geometry" />
        </mxCell>
        <mxCell id="TyNaTPidOdF84O7qYXco-28" value="" style="rounded=0;whiteSpace=wrap;html=1;" parent="1" vertex="1">
          <mxGeometry x="2860" y="-497.25" width="340" height="265" as="geometry" />
        </mxCell>
        <mxCell id="TyNaTPidOdF84O7qYXco-32" value="" style="whiteSpace=wrap;html=1;shape=mxgraph.basic.oval_callout" parent="1" vertex="1">
          <mxGeometry x="2880" y="-282.25" width="70" height="30" as="geometry" />
        </mxCell>
        <mxCell id="TyNaTPidOdF84O7qYXco-33" value="" style="rounded=0;whiteSpace=wrap;html=1;" parent="1" vertex="1">
          <mxGeometry x="3095" y="-232.25" width="105" height="30" as="geometry" />
        </mxCell>
        <mxCell id="TyNaTPidOdF84O7qYXco-34" value="" style="shape=image;html=1;verticalAlign=top;verticalLabelPosition=bottom;labelBackgroundColor=#ffffff;imageAspect=0;aspect=fixed;image=https://cdn4.iconfinder.com/data/icons/ui-office/512/User_Interface-85-128.png" parent="1" vertex="1">
          <mxGeometry x="3128" y="-236.75" width="39" height="39" as="geometry" />
        </mxCell>
        <mxCell id="TyNaTPidOdF84O7qYXco-36" value="" style="whiteSpace=wrap;html=1;shape=mxgraph.basic.oval_callout" parent="1" vertex="1">
          <mxGeometry x="2880" y="-352.25" width="80" height="40" as="geometry" />
        </mxCell>
        <mxCell id="TyNaTPidOdF84O7qYXco-37" value="" style="whiteSpace=wrap;html=1;shape=mxgraph.basic.oval_callout;direction=east;flipH=1;" parent="1" vertex="1">
          <mxGeometry x="3112.5" y="-482.25" width="70" height="50" as="geometry" />
        </mxCell>
        <mxCell id="TyNaTPidOdF84O7qYXco-38" value="" style="whiteSpace=wrap;html=1;shape=mxgraph.basic.oval_callout;direction=east;flipH=1;" parent="1" vertex="1">
          <mxGeometry x="3112.5" y="-417.25" width="70" height="50" as="geometry" />
        </mxCell>
        <mxCell id="X85s0yCxvE1wC52VFxOE-14" style="edgeStyle=orthogonalEdgeStyle;rounded=0;orthogonalLoop=1;jettySize=auto;html=1;exitX=1;exitY=0.5;exitDx=0;exitDy=0;entryX=0;entryY=0.5;entryDx=0;entryDy=0;" edge="1" parent="1" source="TyNaTPidOdF84O7qYXco-45" target="TyNaTPidOdF84O7qYXco-150">
          <mxGeometry relative="1" as="geometry" />
        </mxCell>
        <mxCell id="TyNaTPidOdF84O7qYXco-45" value="" style="whiteSpace=wrap;html=1;aspect=fixed;" parent="1" vertex="1">
          <mxGeometry x="1040" y="60" width="340" height="340" as="geometry" />
        </mxCell>
        <mxCell id="X85s0yCxvE1wC52VFxOE-10" style="edgeStyle=orthogonalEdgeStyle;rounded=0;orthogonalLoop=1;jettySize=auto;html=1;exitX=0.5;exitY=1;exitDx=0;exitDy=0;entryX=0.25;entryY=0;entryDx=0;entryDy=0;" edge="1" parent="1" source="TyNaTPidOdF84O7qYXco-46" target="TyNaTPidOdF84O7qYXco-48">
          <mxGeometry relative="1" as="geometry" />
        </mxCell>
        <mxCell id="TyNaTPidOdF84O7qYXco-46" value="" style="rounded=0;whiteSpace=wrap;html=1;" parent="1" vertex="1">
          <mxGeometry x="1040" y="-250" width="340" height="50" as="geometry" />
        </mxCell>
        <mxCell id="TyNaTPidOdF84O7qYXco-47" value="" style="rounded=0;whiteSpace=wrap;html=1;" parent="1" vertex="1">
          <mxGeometry x="1040" y="60" width="80" height="340" as="geometry" />
        </mxCell>
        <mxCell id="TyNaTPidOdF84O7qYXco-48" value="Search bar" style="rounded=0;whiteSpace=wrap;html=1;" parent="1" vertex="1">
          <mxGeometry x="1120" y="60" width="260" height="50" as="geometry" />
        </mxCell>
        <mxCell id="TyNaTPidOdF84O7qYXco-49" value="" style="rounded=0;whiteSpace=wrap;html=1;" parent="1" vertex="1">
          <mxGeometry x="1041.25" y="187.5" width="78.75" height="32.5" as="geometry" />
        </mxCell>
        <mxCell id="TyNaTPidOdF84O7qYXco-50" value="" style="rounded=0;whiteSpace=wrap;html=1;" parent="1" vertex="1">
          <mxGeometry x="1042.5" y="130" width="77.5" height="30" as="geometry" />
        </mxCell>
        <mxCell id="TyNaTPidOdF84O7qYXco-51" value="" style="rounded=0;whiteSpace=wrap;html=1;" parent="1" vertex="1">
          <mxGeometry x="1041.88" y="250" width="77.5" height="30" as="geometry" />
        </mxCell>
        <mxCell id="TyNaTPidOdF84O7qYXco-52" value="" style="rounded=0;whiteSpace=wrap;html=1;" parent="1" vertex="1">
          <mxGeometry x="1040" y="310" width="80" height="30" as="geometry" />
        </mxCell>
        <mxCell id="TyNaTPidOdF84O7qYXco-53" value="" style="shape=image;html=1;verticalAlign=top;verticalLabelPosition=bottom;labelBackgroundColor=#ffffff;imageAspect=0;aspect=fixed;image=https://cdn2.iconfinder.com/data/icons/search-outline-24-px/24/commerce_and_shopping_loupe_bar_code_barcode_supermarket-128.png" parent="1" vertex="1">
          <mxGeometry x="1340" y="65" width="40" height="40" as="geometry" />
        </mxCell>
        <mxCell id="TyNaTPidOdF84O7qYXco-55" value="" style="whiteSpace=wrap;html=1;aspect=fixed;" parent="1" vertex="1">
          <mxGeometry x="1150" y="130" width="80" height="80" as="geometry" />
        </mxCell>
        <mxCell id="TyNaTPidOdF84O7qYXco-56" value="" style="whiteSpace=wrap;html=1;aspect=fixed;" parent="1" vertex="1">
          <mxGeometry x="1267" y="130" width="80" height="80" as="geometry" />
        </mxCell>
        <mxCell id="TyNaTPidOdF84O7qYXco-57" value="" style="whiteSpace=wrap;html=1;aspect=fixed;" parent="1" vertex="1">
          <mxGeometry x="1150" y="230" width="80" height="80" as="geometry" />
        </mxCell>
        <mxCell id="TyNaTPidOdF84O7qYXco-58" value="" style="whiteSpace=wrap;html=1;aspect=fixed;" parent="1" vertex="1">
          <mxGeometry x="1267" y="230" width="80" height="80" as="geometry" />
        </mxCell>
        <mxCell id="TyNaTPidOdF84O7qYXco-59" value="" style="rounded=0;whiteSpace=wrap;html=1;" parent="1" vertex="1">
          <mxGeometry x="1175" y="180" width="30" height="20" as="geometry" />
        </mxCell>
        <mxCell id="TyNaTPidOdF84O7qYXco-60" value="" style="rounded=0;whiteSpace=wrap;html=1;" parent="1" vertex="1">
          <mxGeometry x="1292" y="180" width="30" height="20" as="geometry" />
        </mxCell>
        <mxCell id="TyNaTPidOdF84O7qYXco-61" value="" style="rounded=0;whiteSpace=wrap;html=1;" parent="1" vertex="1">
          <mxGeometry x="1175" y="280" width="30" height="20" as="geometry" />
        </mxCell>
        <mxCell id="TyNaTPidOdF84O7qYXco-62" value="" style="rounded=0;whiteSpace=wrap;html=1;" parent="1" vertex="1">
          <mxGeometry x="1292" y="280" width="30" height="20" as="geometry" />
        </mxCell>
        <mxCell id="TyNaTPidOdF84O7qYXco-63" value="" style="whiteSpace=wrap;html=1;aspect=fixed;" parent="1" vertex="1">
          <mxGeometry x="1510" y="-540" width="340" height="340" as="geometry" />
        </mxCell>
        <mxCell id="X85s0yCxvE1wC52VFxOE-21" style="edgeStyle=elbowEdgeStyle;rounded=0;orthogonalLoop=1;jettySize=auto;html=1;exitX=0.75;exitY=0;exitDx=0;exitDy=0;entryX=0.75;entryY=0;entryDx=0;entryDy=0;" edge="1" parent="1" source="TyNaTPidOdF84O7qYXco-64" target="TyNaTPidOdF84O7qYXco-27">
          <mxGeometry relative="1" as="geometry">
            <Array as="points">
              <mxPoint x="2610" y="-820" />
            </Array>
          </mxGeometry>
        </mxCell>
        <mxCell id="TyNaTPidOdF84O7qYXco-64" value="" style="rounded=0;whiteSpace=wrap;html=1;" parent="1" vertex="1">
          <mxGeometry x="1510" y="-540" width="340" height="50" as="geometry" />
        </mxCell>
        <mxCell id="TyNaTPidOdF84O7qYXco-67" value="" style="points=[];aspect=fixed;html=1;align=center;shadow=0;dashed=0;fillColor=#FF6A00;strokeColor=none;shape=mxgraph.alibaba_cloud.user;" parent="1" vertex="1">
          <mxGeometry x="1330" y="-540" width="50" height="50" as="geometry" />
        </mxCell>
        <mxCell id="TyNaTPidOdF84O7qYXco-69" value="" style="points=[];aspect=fixed;html=1;align=center;shadow=0;dashed=0;fillColor=#FF6A00;strokeColor=none;shape=mxgraph.alibaba_cloud.user;" parent="1" vertex="1">
          <mxGeometry x="1800" y="-540" width="50" height="50" as="geometry" />
        </mxCell>
        <mxCell id="TyNaTPidOdF84O7qYXco-73" value="" style="sketch=0;verticalLabelPosition=bottom;sketch=0;aspect=fixed;html=1;verticalAlign=top;strokeColor=none;fillColor=#000000;align=center;outlineConnect=0;pointerEvents=1;shape=mxgraph.citrix2.user;" parent="1" vertex="1">
          <mxGeometry x="3010.93" y="-537.25" width="39.07" height="40" as="geometry" />
        </mxCell>
        <mxCell id="TyNaTPidOdF84O7qYXco-75" value="My Chats" style="text;html=1;align=center;verticalAlign=middle;whiteSpace=wrap;rounded=0;" parent="1" vertex="1">
          <mxGeometry x="1650" y="-480" width="60" height="30" as="geometry" />
        </mxCell>
        <mxCell id="TyNaTPidOdF84O7qYXco-76" value="" style="rounded=0;whiteSpace=wrap;html=1;" parent="1" vertex="1">
          <mxGeometry x="1520" y="-440" width="200" height="30" as="geometry" />
        </mxCell>
        <mxCell id="TyNaTPidOdF84O7qYXco-77" value="Chat" style="rounded=0;whiteSpace=wrap;html=1;" parent="1" vertex="1">
          <mxGeometry x="1730" y="-440" width="50" height="30" as="geometry" />
        </mxCell>
        <mxCell id="TyNaTPidOdF84O7qYXco-78" value="Delete" style="rounded=0;whiteSpace=wrap;html=1;" parent="1" vertex="1">
          <mxGeometry x="1790" y="-440" width="50" height="30" as="geometry" />
        </mxCell>
        <mxCell id="TyNaTPidOdF84O7qYXco-79" value="" style="rounded=0;whiteSpace=wrap;html=1;" parent="1" vertex="1">
          <mxGeometry x="1520" y="-385" width="200" height="30" as="geometry" />
        </mxCell>
        <mxCell id="TyNaTPidOdF84O7qYXco-80" value="" style="rounded=0;whiteSpace=wrap;html=1;" parent="1" vertex="1">
          <mxGeometry x="1520" y="-330" width="200" height="30" as="geometry" />
        </mxCell>
        <mxCell id="TyNaTPidOdF84O7qYXco-81" value="" style="rounded=0;whiteSpace=wrap;html=1;" parent="1" vertex="1">
          <mxGeometry x="1520" y="-280" width="200" height="30" as="geometry" />
        </mxCell>
        <mxCell id="TyNaTPidOdF84O7qYXco-82" value="Chat" style="rounded=0;whiteSpace=wrap;html=1;" parent="1" vertex="1">
          <mxGeometry x="1730" y="-385" width="50" height="30" as="geometry" />
        </mxCell>
        <mxCell id="TyNaTPidOdF84O7qYXco-83" value="Chat" style="rounded=0;whiteSpace=wrap;html=1;" parent="1" vertex="1">
          <mxGeometry x="1730" y="-330" width="50" height="30" as="geometry" />
        </mxCell>
        <mxCell id="TyNaTPidOdF84O7qYXco-84" value="Chat" style="rounded=0;whiteSpace=wrap;html=1;" parent="1" vertex="1">
          <mxGeometry x="1730" y="-280" width="50" height="30" as="geometry" />
        </mxCell>
        <mxCell id="TyNaTPidOdF84O7qYXco-85" value="Delete" style="rounded=0;whiteSpace=wrap;html=1;" parent="1" vertex="1">
          <mxGeometry x="1790" y="-385" width="50" height="30" as="geometry" />
        </mxCell>
        <mxCell id="TyNaTPidOdF84O7qYXco-86" value="Delete" style="rounded=0;whiteSpace=wrap;html=1;" parent="1" vertex="1">
          <mxGeometry x="1790" y="-330" width="50" height="30" as="geometry" />
        </mxCell>
        <mxCell id="TyNaTPidOdF84O7qYXco-87" value="Delete" style="rounded=0;whiteSpace=wrap;html=1;" parent="1" vertex="1">
          <mxGeometry x="1790" y="-280" width="50" height="30" as="geometry" />
        </mxCell>
        <mxCell id="TyNaTPidOdF84O7qYXco-88" value="" style="whiteSpace=wrap;html=1;aspect=fixed;" parent="1" vertex="1">
          <mxGeometry x="600" y="570" width="340" height="340" as="geometry" />
        </mxCell>
        <mxCell id="TyNaTPidOdF84O7qYXco-89" value="Logo" style="rounded=0;whiteSpace=wrap;html=1;" parent="1" vertex="1">
          <mxGeometry x="1040" y="61.25" width="78.12" height="47.5" as="geometry" />
        </mxCell>
        <mxCell id="TyNaTPidOdF84O7qYXco-90" value="" style="whiteSpace=wrap;html=1;aspect=fixed;" parent="1" vertex="1">
          <mxGeometry x="1950" y="-540" width="340" height="340" as="geometry" />
        </mxCell>
        <mxCell id="TyNaTPidOdF84O7qYXco-92" value="" style="rounded=0;whiteSpace=wrap;html=1;" parent="1" vertex="1">
          <mxGeometry x="1950" y="-540" width="340" height="50" as="geometry" />
        </mxCell>
        <mxCell id="TyNaTPidOdF84O7qYXco-91" value="" style="points=[];aspect=fixed;html=1;align=center;shadow=0;dashed=0;fillColor=#FF6A00;strokeColor=none;shape=mxgraph.alibaba_cloud.user;" parent="1" vertex="1">
          <mxGeometry x="2240" y="-540" width="50" height="50" as="geometry" />
        </mxCell>
        <mxCell id="TyNaTPidOdF84O7qYXco-93" value="" style="rounded=0;whiteSpace=wrap;html=1;" parent="1" vertex="1">
          <mxGeometry x="1530" y="-530" width="50" height="30" as="geometry" />
        </mxCell>
        <mxCell id="TyNaTPidOdF84O7qYXco-94" value="" style="rounded=0;whiteSpace=wrap;html=1;" parent="1" vertex="1">
          <mxGeometry x="1590" y="-530" width="50" height="30" as="geometry" />
        </mxCell>
        <mxCell id="TyNaTPidOdF84O7qYXco-95" value="" style="rounded=0;whiteSpace=wrap;html=1;" parent="1" vertex="1">
          <mxGeometry x="1650" y="-530" width="50" height="30" as="geometry" />
        </mxCell>
        <mxCell id="TyNaTPidOdF84O7qYXco-96" value="" style="rounded=0;whiteSpace=wrap;html=1;" parent="1" vertex="1">
          <mxGeometry x="1710" y="-530" width="50" height="30" as="geometry" />
        </mxCell>
        <mxCell id="TyNaTPidOdF84O7qYXco-97" value="" style="rounded=0;whiteSpace=wrap;html=1;" parent="1" vertex="1">
          <mxGeometry x="1970" y="-530" width="50" height="30" as="geometry" />
        </mxCell>
        <mxCell id="TyNaTPidOdF84O7qYXco-98" value="" style="rounded=0;whiteSpace=wrap;html=1;" parent="1" vertex="1">
          <mxGeometry x="2030" y="-530" width="50" height="30" as="geometry" />
        </mxCell>
        <mxCell id="TyNaTPidOdF84O7qYXco-99" value="" style="rounded=0;whiteSpace=wrap;html=1;" parent="1" vertex="1">
          <mxGeometry x="2090" y="-530" width="50" height="30" as="geometry" />
        </mxCell>
        <mxCell id="TyNaTPidOdF84O7qYXco-100" value="" style="rounded=0;whiteSpace=wrap;html=1;" parent="1" vertex="1">
          <mxGeometry x="2150" y="-530" width="50" height="30" as="geometry" />
        </mxCell>
        <mxCell id="TyNaTPidOdF84O7qYXco-101" value="" style="whiteSpace=wrap;html=1;aspect=fixed;" parent="1" vertex="1">
          <mxGeometry x="1980" y="-460" width="190" height="190" as="geometry" />
        </mxCell>
        <mxCell id="TyNaTPidOdF84O7qYXco-102" value="" style="rounded=0;whiteSpace=wrap;html=1;" parent="1" vertex="1">
          <mxGeometry x="2170" y="-460" width="100" height="190" as="geometry" />
        </mxCell>
        <mxCell id="TyNaTPidOdF84O7qYXco-103" value="Pay" style="rounded=0;whiteSpace=wrap;html=1;" parent="1" vertex="1">
          <mxGeometry x="2020" y="-260" width="100" height="30" as="geometry" />
        </mxCell>
        <mxCell id="TyNaTPidOdF84O7qYXco-104" value="Cancel" style="rounded=0;whiteSpace=wrap;html=1;" parent="1" vertex="1">
          <mxGeometry x="2155" y="-260" width="100" height="30" as="geometry" />
        </mxCell>
        <mxCell id="TyNaTPidOdF84O7qYXco-105" value="Total" style="rounded=0;whiteSpace=wrap;html=1;" parent="1" vertex="1">
          <mxGeometry x="2170" y="-310" width="100" height="40" as="geometry" />
        </mxCell>
        <mxCell id="TyNaTPidOdF84O7qYXco-106" value="Product Image" style="whiteSpace=wrap;html=1;aspect=fixed;" parent="1" vertex="1">
          <mxGeometry x="2015" y="-450" width="120" height="120" as="geometry" />
        </mxCell>
        <mxCell id="TyNaTPidOdF84O7qYXco-108" value="DESCRIPTION" style="text;html=1;align=center;verticalAlign=middle;whiteSpace=wrap;rounded=0;" parent="1" vertex="1">
          <mxGeometry x="2045" y="-320" width="60" height="30" as="geometry" />
        </mxCell>
        <mxCell id="TyNaTPidOdF84O7qYXco-109" value="Admin" style="rounded=0;whiteSpace=wrap;html=1;" parent="1" vertex="1">
          <mxGeometry x="600" y="570" width="340" height="50" as="geometry" />
        </mxCell>
        <mxCell id="TyNaTPidOdF84O7qYXco-110" value="" style="rounded=0;whiteSpace=wrap;html=1;" parent="1" vertex="1">
          <mxGeometry x="600" y="620" width="80" height="290" as="geometry" />
        </mxCell>
        <mxCell id="TyNaTPidOdF84O7qYXco-111" value="" style="rounded=0;whiteSpace=wrap;html=1;" parent="1" vertex="1">
          <mxGeometry x="600" y="620" width="80" height="40" as="geometry" />
        </mxCell>
        <mxCell id="TyNaTPidOdF84O7qYXco-112" value="" style="rounded=0;whiteSpace=wrap;html=1;" parent="1" vertex="1">
          <mxGeometry x="600" y="690" width="80" height="40" as="geometry" />
        </mxCell>
        <mxCell id="TyNaTPidOdF84O7qYXco-113" value="" style="rounded=0;whiteSpace=wrap;html=1;" parent="1" vertex="1">
          <mxGeometry x="600" y="760" width="80" height="40" as="geometry" />
        </mxCell>
        <mxCell id="TyNaTPidOdF84O7qYXco-114" value="" style="rounded=0;whiteSpace=wrap;html=1;" parent="1" vertex="1">
          <mxGeometry x="600" y="830" width="80" height="40" as="geometry" />
        </mxCell>
        <mxCell id="TyNaTPidOdF84O7qYXco-115" value="" style="rounded=0;whiteSpace=wrap;html=1;" parent="1" vertex="1">
          <mxGeometry x="690" y="640" width="110" height="50" as="geometry" />
        </mxCell>
        <mxCell id="TyNaTPidOdF84O7qYXco-116" value="" style="rounded=0;whiteSpace=wrap;html=1;" parent="1" vertex="1">
          <mxGeometry x="820" y="640" width="110" height="50" as="geometry" />
        </mxCell>
        <mxCell id="TyNaTPidOdF84O7qYXco-117" value="" style="rounded=0;whiteSpace=wrap;html=1;" parent="1" vertex="1">
          <mxGeometry x="690" y="710" width="110" height="50" as="geometry" />
        </mxCell>
        <mxCell id="TyNaTPidOdF84O7qYXco-118" value="" style="rounded=0;whiteSpace=wrap;html=1;" parent="1" vertex="1">
          <mxGeometry x="820" y="710" width="110" height="50" as="geometry" />
        </mxCell>
        <mxCell id="TyNaTPidOdF84O7qYXco-119" value="" style="rounded=0;whiteSpace=wrap;html=1;" parent="1" vertex="1">
          <mxGeometry x="690" y="780" width="110" height="50" as="geometry" />
        </mxCell>
        <mxCell id="TyNaTPidOdF84O7qYXco-120" value="" style="rounded=0;whiteSpace=wrap;html=1;" parent="1" vertex="1">
          <mxGeometry x="820" y="780" width="110" height="50" as="geometry" />
        </mxCell>
        <mxCell id="TyNaTPidOdF84O7qYXco-121" value="" style="rounded=0;whiteSpace=wrap;html=1;" parent="1" vertex="1">
          <mxGeometry x="690" y="840" width="110" height="50" as="geometry" />
        </mxCell>
        <mxCell id="TyNaTPidOdF84O7qYXco-122" value="" style="rounded=0;whiteSpace=wrap;html=1;" parent="1" vertex="1">
          <mxGeometry x="820" y="840" width="110" height="50" as="geometry" />
        </mxCell>
        <mxCell id="TyNaTPidOdF84O7qYXco-124" value="" style="rounded=0;whiteSpace=wrap;html=1;" parent="1" vertex="1">
          <mxGeometry x="2360" y="-540" width="340" height="50" as="geometry" />
        </mxCell>
        <mxCell id="TyNaTPidOdF84O7qYXco-125" value="" style="points=[];aspect=fixed;html=1;align=center;shadow=0;dashed=0;fillColor=#FF6A00;strokeColor=none;shape=mxgraph.alibaba_cloud.user;" parent="1" vertex="1">
          <mxGeometry x="2650" y="-540" width="50" height="50" as="geometry" />
        </mxCell>
        <mxCell id="TyNaTPidOdF84O7qYXco-126" value="" style="rounded=0;whiteSpace=wrap;html=1;" parent="1" vertex="1">
          <mxGeometry x="2380" y="-530" width="50" height="30" as="geometry" />
        </mxCell>
        <mxCell id="TyNaTPidOdF84O7qYXco-147" value="" style="rounded=0;whiteSpace=wrap;html=1;" parent="1" vertex="1">
          <mxGeometry x="2360" y="-490" width="340" height="290" as="geometry" />
        </mxCell>
        <mxCell id="TyNaTPidOdF84O7qYXco-127" value="" style="rounded=0;whiteSpace=wrap;html=1;" parent="1" vertex="1">
          <mxGeometry x="2440" y="-530" width="50" height="30" as="geometry" />
        </mxCell>
        <mxCell id="TyNaTPidOdF84O7qYXco-128" value="" style="rounded=0;whiteSpace=wrap;html=1;" parent="1" vertex="1">
          <mxGeometry x="2500" y="-530" width="50" height="30" as="geometry" />
        </mxCell>
        <mxCell id="TyNaTPidOdF84O7qYXco-129" value="" style="rounded=0;whiteSpace=wrap;html=1;" parent="1" vertex="1">
          <mxGeometry x="2560" y="-530" width="50" height="30" as="geometry" />
        </mxCell>
        <mxCell id="TyNaTPidOdF84O7qYXco-136" value="My HIstory" style="text;html=1;align=center;verticalAlign=middle;whiteSpace=wrap;rounded=0;" parent="1" vertex="1">
          <mxGeometry x="2500" y="-470" width="60" height="30" as="geometry" />
        </mxCell>
        <mxCell id="TyNaTPidOdF84O7qYXco-137" value="" style="rounded=0;whiteSpace=wrap;html=1;" parent="1" vertex="1">
          <mxGeometry x="2380" y="-430" width="200" height="40" as="geometry" />
        </mxCell>
        <mxCell id="TyNaTPidOdF84O7qYXco-139" value="" style="rounded=0;whiteSpace=wrap;html=1;" parent="1" vertex="1">
          <mxGeometry x="2380" y="-370" width="200" height="40" as="geometry" />
        </mxCell>
        <mxCell id="TyNaTPidOdF84O7qYXco-140" value="Details" style="rounded=0;whiteSpace=wrap;html=1;" parent="1" vertex="1">
          <mxGeometry x="2590" y="-370" width="95" height="40" as="geometry" />
        </mxCell>
        <mxCell id="TyNaTPidOdF84O7qYXco-141" value="Details" style="rounded=0;whiteSpace=wrap;html=1;" parent="1" vertex="1">
          <mxGeometry x="2590" y="-430" width="95" height="40" as="geometry" />
        </mxCell>
        <mxCell id="TyNaTPidOdF84O7qYXco-142" value="" style="rounded=0;whiteSpace=wrap;html=1;" parent="1" vertex="1">
          <mxGeometry x="2380" y="-310" width="200" height="40" as="geometry" />
        </mxCell>
        <mxCell id="TyNaTPidOdF84O7qYXco-143" value="Details" style="rounded=0;whiteSpace=wrap;html=1;" parent="1" vertex="1">
          <mxGeometry x="2590" y="-310" width="95" height="40" as="geometry" />
        </mxCell>
        <mxCell id="TyNaTPidOdF84O7qYXco-144" value="" style="rounded=0;whiteSpace=wrap;html=1;" parent="1" vertex="1">
          <mxGeometry x="2380" y="-250" width="200" height="40" as="geometry" />
        </mxCell>
        <mxCell id="TyNaTPidOdF84O7qYXco-145" value="Details" style="rounded=0;whiteSpace=wrap;html=1;" parent="1" vertex="1">
          <mxGeometry x="2590" y="-250" width="95" height="40" as="geometry" />
        </mxCell>
        <mxCell id="X85s0yCxvE1wC52VFxOE-19" style="edgeStyle=orthogonalEdgeStyle;rounded=0;orthogonalLoop=1;jettySize=auto;html=1;exitX=1;exitY=0.5;exitDx=0;exitDy=0;entryX=0.25;entryY=1;entryDx=0;entryDy=0;" edge="1" parent="1" source="TyNaTPidOdF84O7qYXco-149" target="TyNaTPidOdF84O7qYXco-34">
          <mxGeometry relative="1" as="geometry" />
        </mxCell>
        <mxCell id="X85s0yCxvE1wC52VFxOE-24" style="edgeStyle=elbowEdgeStyle;rounded=0;orthogonalLoop=1;jettySize=auto;html=1;exitX=0.75;exitY=0;exitDx=0;exitDy=0;entryX=0.5;entryY=1;entryDx=0;entryDy=0;" edge="1" parent="1" source="TyNaTPidOdF84O7qYXco-149" target="TyNaTPidOdF84O7qYXco-90">
          <mxGeometry relative="1" as="geometry">
            <Array as="points">
              <mxPoint x="2120" y="-50" />
            </Array>
          </mxGeometry>
        </mxCell>
        <mxCell id="TyNaTPidOdF84O7qYXco-149" value="" style="whiteSpace=wrap;html=1;aspect=fixed;" parent="1" vertex="1">
          <mxGeometry x="1560" y="61.25" width="340" height="340" as="geometry" />
        </mxCell>
        <mxCell id="TyNaTPidOdF84O7qYXco-150" value="" style="rounded=0;whiteSpace=wrap;html=1;" parent="1" vertex="1">
          <mxGeometry x="1560" y="61.25" width="80" height="340" as="geometry" />
        </mxCell>
        <mxCell id="TyNaTPidOdF84O7qYXco-152" value="" style="rounded=0;whiteSpace=wrap;html=1;" parent="1" vertex="1">
          <mxGeometry x="1561.25" y="188.75" width="78.75" height="32.5" as="geometry" />
        </mxCell>
        <mxCell id="TyNaTPidOdF84O7qYXco-153" value="" style="rounded=0;whiteSpace=wrap;html=1;" parent="1" vertex="1">
          <mxGeometry x="1562.5" y="131.25" width="77.5" height="30" as="geometry" />
        </mxCell>
        <mxCell id="TyNaTPidOdF84O7qYXco-154" value="" style="rounded=0;whiteSpace=wrap;html=1;" parent="1" vertex="1">
          <mxGeometry x="1561.88" y="251.25" width="77.5" height="30" as="geometry" />
        </mxCell>
        <mxCell id="TyNaTPidOdF84O7qYXco-155" value="" style="rounded=0;whiteSpace=wrap;html=1;" parent="1" vertex="1">
          <mxGeometry x="1560" y="311.25" width="80" height="30" as="geometry" />
        </mxCell>
        <mxCell id="TyNaTPidOdF84O7qYXco-158" value="" style="whiteSpace=wrap;html=1;aspect=fixed;" parent="1" vertex="1">
          <mxGeometry x="1655" y="96.25" width="225" height="225" as="geometry" />
        </mxCell>
        <mxCell id="TyNaTPidOdF84O7qYXco-165" value="Logo" style="rounded=0;whiteSpace=wrap;html=1;" parent="1" vertex="1">
          <mxGeometry x="1560" y="62.5" width="78.12" height="47.5" as="geometry" />
        </mxCell>
        <mxCell id="TyNaTPidOdF84O7qYXco-166" value="&lt;h3&gt;Buy&lt;/h3&gt;" style="rounded=0;whiteSpace=wrap;html=1;" parent="1" vertex="1">
          <mxGeometry x="1655" y="331.25" width="100" height="55" as="geometry" />
        </mxCell>
        <mxCell id="TyNaTPidOdF84O7qYXco-167" value="&lt;h3&gt;Chat&lt;/h3&gt;" style="rounded=0;whiteSpace=wrap;html=1;" parent="1" vertex="1">
          <mxGeometry x="1780" y="331.25" width="100" height="55" as="geometry" />
        </mxCell>
      </root>
    </mxGraphModel>
  </diagram>
</mxfile>
